<?xml version="1.0" standalone="no"?>
<!DOCTYPE svg PUBLIC "-//W3C//DTD SVG 1.1//EN" "http://www.w3.org/Graphics/SVG/1.1/DTD/svg11.dtd">
<svg width="100%" height="100%" viewBox="0 0 830 326" version="1.1" xmlns="http://www.w3.org/2000/svg" xmlns:xlink="http://www.w3.org/1999/xlink" xml:space="preserve" style="fill-rule:evenodd;clip-rule:evenodd;stroke-linejoin:round;stroke-miterlimit:1.41421;">
    <g transform="matrix(4.16667,0,0,4.16667,-825.188,-1405.97)">
        <path d="M306.656,414.782C308.541,414.782 308.894,414.429 308.894,412.603L308.894,411.072C308.894,409.246 308.541,408.893 306.656,408.893L287.81,408.893C288.399,396.525 308.246,400.589 308.246,384.688C308.246,376.031 302.534,372.497 293.346,372.497C289.165,372.497 285.985,373.381 283.688,375.089C281.45,376.738 281.156,378.917 281.156,380.271C281.156,382.038 281.686,382.45 282.922,381.743C285.514,380.212 288.458,378.387 293.287,378.387C298.764,378.387 301.179,380.86 301.179,384.806C301.179,396.525 280.331,391.402 280.331,411.661C280.331,413.84 280.626,414.782 282.157,414.782L306.656,414.782ZM346.703,394.111C346.703,381.096 341.226,372.38 329.447,372.38C317.787,372.38 312.133,381.155 312.133,394.111C312.133,406.773 317.551,415.548 329.447,415.548C341.461,415.548 346.703,406.773 346.703,394.111ZM319.259,394.052C319.259,385.571 321.85,378.151 329.447,378.151C337.044,378.151 339.636,385.571 339.636,394.052C339.636,402.297 337.044,409.776 329.447,409.776C321.85,409.776 319.259,402.297 319.259,394.052ZM361.897,376.09C361.897,373.44 361.543,373.086 358.893,373.086L350.236,373.086C348.705,373.086 348.234,373.086 348.234,374.205C348.234,376.561 350.118,378.976 354.476,378.976L355.065,378.976L355.065,412.25C355.065,414.37 355.477,414.782 357.598,414.782L359.364,414.782C361.484,414.782 361.897,414.37 361.897,412.25L361.897,376.09ZM367.667,374.264C367.667,376.561 369.552,378.976 373.91,378.976L387.809,378.976L371.496,412.309C370.789,413.722 370.965,414.782 372.261,414.782L376.325,414.782C377.561,414.782 378.386,414.017 378.798,413.133L396.937,375.795C397.82,373.97 396.584,373.086 394.876,373.086L369.67,373.086C368.139,373.086 367.667,373.086 367.667,374.264Z" style="fill:#39c;fill-rule:nonzero;"/>
    </g>
    <g transform="matrix(4.16667,0,0,4.16667,-825.188,-1405.97)">
        <path d="M288.533,341.957C287.392,337.433 287.265,337.433 284.009,337.433L281.769,337.433C280.754,337.433 280.331,337.433 280.331,338.236C280.331,339.589 281.177,340.35 281.98,340.731L283.206,341.153L290.393,366.098C290.732,367.197 291.07,367.535 292.296,367.535L293.987,367.535C295.213,367.535 295.594,367.197 295.89,366.098L302.274,344.324L308.615,366.098C308.954,367.197 309.334,367.535 310.56,367.535L312.294,367.535C313.477,367.535 313.773,367.239 314.112,366.055L321.214,341.661C321.595,340.308 321.806,339.378 321.806,338.743C321.806,337.475 320.961,337.433 319.143,337.433L315.338,337.433C314.323,337.433 313.9,337.56 313.9,338.236C313.9,339.843 314.999,340.35 315.845,340.815L316.31,340.942L311.533,360.221L305.318,339.209C304.853,337.56 304.514,337.433 302.823,337.433L301.724,337.433C300.075,337.433 299.822,337.602 299.356,339.251L293.437,360.179L288.533,341.957ZM326.245,341.957C325.104,337.433 324.977,337.433 321.721,337.433L319.481,337.433C318.466,337.433 318.043,337.433 318.043,338.236C318.043,339.589 318.889,340.35 319.692,340.731L320.918,341.153L328.105,366.098C328.444,367.197 328.782,367.535 330.008,367.535L331.699,367.535C332.925,367.535 333.306,367.197 333.602,366.098L339.986,344.324L346.327,366.098C346.666,367.197 347.046,367.535 348.272,367.535L350.006,367.535C351.189,367.535 351.485,367.239 351.824,366.055L358.926,341.661C359.307,340.308 359.518,339.378 359.518,338.743C359.518,337.475 358.673,337.433 356.855,337.433L353.05,337.433C352.035,337.433 351.612,337.56 351.612,338.236C351.612,339.843 352.711,340.35 353.557,340.815L354.022,340.942L349.245,360.221L343.03,339.209C342.565,337.56 342.226,337.433 340.535,337.433L339.436,337.433C337.787,337.433 337.533,337.602 337.068,339.251L331.149,360.179L326.245,341.957ZM363.957,341.957C362.815,337.433 362.689,337.433 359.433,337.433L357.192,337.433C356.178,337.433 355.755,337.433 355.755,338.236C355.755,339.589 356.601,340.35 357.404,340.731L358.63,341.153L365.817,366.098C366.155,367.197 366.494,367.535 367.72,367.535L369.411,367.535C370.637,367.535 371.018,367.197 371.313,366.098L377.698,344.324L384.039,366.098C384.378,367.197 384.758,367.535 385.984,367.535L387.718,367.535C388.901,367.535 389.197,367.239 389.535,366.055L396.638,341.661C397.019,340.308 397.23,339.378 397.23,338.743C397.23,337.475 396.385,337.433 394.567,337.433L390.762,337.433C389.747,337.433 389.324,337.56 389.324,338.236C389.324,339.843 390.423,340.35 391.269,340.815L391.734,340.942L386.957,360.221L380.742,339.209C380.277,337.56 379.938,337.433 378.247,337.433L377.148,337.433C375.499,337.433 375.245,337.602 374.78,339.251L368.861,360.179L363.957,341.957Z" style="fill:#39c;fill-rule:nonzero;"/>
    </g>
    <g transform="matrix(4.16667,0,0,4.16667,-825.188,-1405.97)">
        <path d="M272.1,406.222C272.1,406.222 271.674,410.782 268.191,415.548L222.23,415.548C219.497,414.635 216.631,413.289 213.692,411.367C204.588,405.418 199.755,396.519 198.045,387.613C199.694,391.724 202.981,395.447 207.135,398.502C208.873,399.781 210.639,400.826 212.48,401.681C210.987,400.476 209.509,399.089 208.07,397.487C200.335,388.876 198.138,378.091 199.276,368.043C199.668,372.885 201.938,377.697 205.354,381.994C207.656,384.891 210.236,387.154 213.25,389.009C213.056,388.704 212.862,388.397 212.67,388.082C204.81,375.161 204.218,360.44 207.599,347.345C207.131,353.839 208.988,360.659 212.363,367.02C216.248,374.349 221.487,379.392 228.87,383.764C232.04,385.641 236.243,387.523 241.847,388.691C233.875,379.078 227.75,365.283 228.806,353.455C230.214,337.686 244.495,333.878 252.4,340.619C258.466,345.792 257.002,352.921 255.472,354.724C255.288,354.942 254.225,354.681 253.112,353.69C252,352.698 250.612,349.261 250.612,349.261C251.764,355.007 254.813,355.65 254.813,355.65C254.839,356.298 255.027,357.676 255.243,358.44C255.763,360.283 258.237,363.232 255.048,362.863C252.205,362.533 249.903,355.151 249.423,351.143C248.944,347.135 246.902,345.047 243.218,344.741C238.636,344.36 237.081,348.87 236.572,351.3C234.981,358.883 238.731,371.091 249.18,379.069C249.335,379.162 249.484,379.263 249.623,379.374C249.82,379.532 250.023,379.687 250.23,379.841C250.359,379.931 250.483,380.024 250.612,380.113C250.617,380.116 250.626,380.125 250.64,380.138C257.98,385.363 271.072,389.085 272.151,402.189C272.255,403.457 272.184,404.748 272.061,406.191L272.1,406.222Z" style="fill:#39c;fill-rule:nonzero;"/>
    </g>
</svg>
